<?xml version="1.0" encoding="UTF-8"?>
<svg version="1.1" xmlns="http://www.w3.org/2000/svg" width="48" height="48">
<path d="M0 0 C0.66 0.33 1.32 0.66 2 1 C2.65159945 3.24244134 3.27126926 5.49419988 3.875 7.75 C5.12079204 11.79133922 6.2547433 14.48617048 9.85546875 16.96875 C12.87759309 18.17612732 15.86908177 19.12144798 19 20 C20.35023229 20.63173965 21.69203044 21.28485117 23 22 C22.67 22.66 22.34 23.32 22 24 C19.75755866 24.65159945 17.50580012 25.27126926 15.25 25.875 C11.20866078 27.12079204 8.51382952 28.2547433 6.03125 31.85546875 C4.82387268 34.87759309 3.87855202 37.86908177 3 41 C2.36826035 42.35023229 1.71514883 43.69203044 1 45 C0.34 44.67 -0.32 44.34 -1 44 C-1.65159945 41.75755866 -2.27126926 39.50580012 -2.875 37.25 C-4.12079204 33.20866078 -5.2547433 30.51382952 -8.85546875 28.03125 C-11.87759309 26.82387268 -14.86908177 25.87855202 -18 25 C-19.35023229 24.36826035 -20.69203044 23.71514883 -22 23 C-21.67 22.34 -21.34 21.68 -21 21 C-18.75755866 20.34840055 -16.50580012 19.72873074 -14.25 19.125 C-10.20866078 17.87920796 -7.51382952 16.7452567 -5.03125 13.14453125 C-3.82387268 10.12240691 -2.87855202 7.13091823 -2 4 C-1.36826035 2.64976771 -0.71514883 1.30796956 0 0 Z " fill="#B8860B" transform="translate(23,2)"/>
</svg>
